<svg width="58" height="39" viewBox="0 0 58 39" version="1.1" xmlns="http://www.w3.org/2000/svg" xmlns:xlink="http://www.w3.org/1999/xlink">
<g id="Canvas" fill="none">
<path id="&#226;&#128;&#156;" d="M 44.0518 32.4131L 44.0518 35.416C 39.7549 37.6621 36.6787 40.0059 34.8232 42.4473C 32.9678 44.8887 32.04 47.5498 32.04 50.4307C 32.04 52.1396 32.2842 53.3115 32.7725 53.9463C 33.2119 54.6299 33.749 54.9717 34.3838 54.9717C 35.0186 54.9717 35.873 54.8008 36.9473 54.459C 38.0215 54.0684 38.998 53.873 39.877 53.873C 41.8789 53.873 43.6123 54.6299 45.0771 56.1436C 46.5908 57.6084 47.3477 59.415 47.3477 61.5635C 47.3477 63.9072 46.4443 65.9336 44.6377 67.6426C 42.8311 69.3027 40.585 70.1328 37.8994 70.1328C 34.6279 70.1328 31.6738 68.7168 29.0371 65.8848C 26.4004 63.0527 25.082 59.5615 25.082 55.4111C 25.082 50.5283 26.6934 45.9873 29.916 41.7881C 33.1875 37.54 37.8994 34.415 44.0518 32.4131ZM 78.9883 32.6328L 78.9883 35.416C 74.0566 38.248 70.8096 40.7871 69.2471 43.0332C 67.6846 45.2793 66.9033 47.916 66.9033 50.9434C 66.9033 52.3105 67.1719 53.3359 67.709 54.0195C 68.2461 54.7031 68.8076 55.0449 69.3936 55.0449C 69.9307 55.0449 70.7363 54.8496 71.8105 54.459C 72.8848 54.0684 73.959 53.873 75.0332 53.873C 77.0352 53.873 78.7686 54.6055 80.2334 56.0703C 81.7471 57.4863 82.5039 59.2441 82.5039 61.3438C 82.5039 63.7363 81.5518 65.8115 79.6475 67.5693C 77.792 69.3271 75.4971 70.2061 72.7627 70.2061C 69.54 70.2061 66.6348 68.8145 64.0469 66.0312C 61.459 63.248 60.165 59.7812 60.165 55.6309C 60.165 50.5039 61.8008 45.8408 65.0723 41.6416C 68.3438 37.3936 72.9824 34.3906 78.9883 32.6328Z" transform="translate(-25 -32)" fill="#E0E0E0"/>
</g>
</svg>
