<svg width="148" height="180" viewBox="0 0 148 180" version="1.1" xmlns="http://www.w3.org/2000/svg" xmlns:xlink="http://www.w3.org/1999/xlink">
<g id="Canvas" fill="none">
<g id="Group">
<g id="Ellipse" transform="translate(9.4856 111.941)">
<mask id="path-1-inside-1" fill="white">
<path d="M 31 12.5233C 31 20.8076 25.6127 27.5233 16.5 27.5233C 7.3873 27.5233 0 20.8076 0 12.5233C 0 4.23904 7.3873 0.951919 16.5 0.951919C 20.4889 0.951919 24.1472 -1.18991 27 0.951938C 30.6645 3.70319 31 7.86532 31 12.5233Z"/>
</mask>
<g mask="url(#path-1-inside-1)">
<path d="M 27 0.951938L 23.998 4.95044L 27 0.951938ZM 26 12.5233C 26 15.596 25.0069 18.0856 23.4799 19.753C 22.0036 21.365 19.7493 22.5233 16.5 22.5233L 16.5 32.5233C 22.3634 32.5233 27.3591 30.3238 30.8546 26.5068C 34.2994 22.7453 36 17.7349 36 12.5233L 26 12.5233ZM 16.5 22.5233C 9.68961 22.5233 5 17.6084 5 12.5233L -5 12.5233C -5 24.0068 5.085 32.5233 16.5 32.5233L 16.5 22.5233ZM 5 12.5233C 5 10.173 5.8996 8.85577 7.47365 7.87667C 9.35065 6.70913 12.4171 5.95192 16.5 5.95192L 16.5 -4.04808C 11.4702 -4.04808 6.28665 -3.16173 2.19183 -0.614643C -2.20595 2.12089 -5 6.58936 -5 12.5233L 5 12.5233ZM 16.5 5.95192C 17.9261 5.95192 19.234 5.76116 20.2909 5.57469C 21.5639 5.35011 22.0641 5.22255 22.9239 5.09249C 24.374 4.87313 24.2496 5.13934 23.998 4.95044L 30.002 -3.04656C 26.8976 -5.37731 23.5177 -5.11111 21.4282 -4.79502C 20.5182 -4.65736 19.1776 -4.38333 18.5536 -4.27324C 17.7136 -4.12505 17.0683 -4.04808 16.5 -4.04808L 16.5 5.95192ZM 23.998 4.95044C 25.4776 6.0613 26 7.71646 26 12.5233L 36 12.5233C 36 8.01419 35.8514 1.34508 30.002 -3.04656L 23.998 4.95044Z" fill="white"/>
</g>
</g>
<g id="Ellipse_2" transform="translate(27 134)">
<mask id="path-3-inside-2" fill="white">
<path d="M 36.5 11.5C 36.5 19.232 25.6127 29 16.5 29C 7.3873 29 0 22.732 0 15C 0 7.26801 4.8873 0 14 0C 23.1127 0 36.5 3.76801 36.5 11.5Z"/>
</mask>
<g mask="url(#path-3-inside-2)">
<path d="M 31.5 11.5C 31.5 13.2698 30.0174 16.3915 26.6082 19.4012C 23.3061 22.3163 19.4355 24 16.5 24L 16.5 34C 22.6772 34 28.8066 30.7997 33.2264 26.8978C 37.539 23.0905 41.5 17.4622 41.5 11.5L 31.5 11.5ZM 16.5 24C 9.347 24 5 19.2319 5 15L -5 15C -5 26.2321 5.4276 34 16.5 34L 16.5 24ZM 5 15C 5 12.1398 5.90946 9.58717 7.39586 7.83472C 8.79908 6.18032 10.9004 5 14 5L 14 -5C 7.98687 -5 3.08822 -2.54632 -0.23038 1.36629C -3.46581 5.18084 -5 10.1282 -5 15L 5 15ZM 14 5C 17.9994 5 22.9412 5.84809 26.7098 7.45143C 30.9021 9.235 31.5 10.9082 31.5 11.5L 41.5 11.5C 41.5 4.35985 35.4043 0.283017 30.6247 -1.75041C 25.4215 -3.96409 19.1133 -5 14 -5L 14 5Z" fill="white"/>
</g>
</g>
<g id="Ellipse_3" transform="translate(45 153)">
<mask id="path-5-inside-3" fill="white">
<path d="M 32 13.5C 32 20.9558 25.732 27 18 27C 10.268 27 0 20.9558 0 13.5C 0 6.04416 8.76801 0 16.5 0C 24.232 0 32 6.04416 32 13.5Z"/>
</mask>
<g mask="url(#path-5-inside-3)">
<path d="M 27 13.5C 27 18.0246 23.1435 22 18 22L 18 32C 28.3205 32 37 23.8871 37 13.5L 27 13.5ZM 18 22C 15.28 22 11.7556 20.8771 8.944 18.9332C 6.02529 16.9153 5 14.8588 5 13.5L -5 13.5C -5 19.5971 -0.891279 24.2906 3.25701 27.1587C 7.51244 30.1008 12.988 32 18 32L 18 22ZM 5 13.5C 5 11.8158 6.02064 9.75685 8.40959 7.90905C 10.7743 6.08001 13.8407 5 16.5 5L 16.5 -5C 11.4273 -5 6.24372 -3.05794 2.29142 -0.000936806C -1.63663 3.03731 -5 7.72838 -5 13.5L 5 13.5ZM 16.5 5C 19.1157 5 21.8677 6.04735 23.9336 7.78266C 25.9947 9.51388 27 11.5833 27 13.5L 37 13.5C 37 7.96084 34.1213 3.28028 30.3654 0.125455C 26.6143 -3.02527 21.6162 -5 16.5 -5L 16.5 5Z" fill="white"/>
</g>
</g>
<g id="Ellipse_4" transform="translate(75.0906 153)">
<mask id="path-7-inside-4" fill="white">
<path d="M 33.9094 10.9999C 33.9094 18.7319 26.746 26.9999 17.9094 26.9999C 9.07287 26.9999 0 20.2319 0 12.4999C 0 4.76795 10.4094 7.49994 17.9094 0C 22.9094 5.5 33.9094 3.26795 33.9094 10.9999Z"/>
</mask>
<g mask="url(#path-7-inside-4)">
<path d="M 17.9094 0L 21.6091 -3.36336L 18.0818 -7.24342L 14.3739 -3.53555L 17.9094 0ZM 28.9094 10.9999C 28.9094 13.3793 27.763 16.1876 25.6062 18.4472C 23.4805 20.6743 20.7284 21.9999 17.9094 21.9999L 17.9094 31.9999C 23.927 31.9999 29.1749 29.1916 32.84 25.3517C 36.4741 21.5443 38.9094 16.3526 38.9094 10.9999L 28.9094 10.9999ZM 17.9094 21.9999C 14.701 21.9999 11.2978 20.7417 8.73619 18.7226C 6.1326 16.6704 5 14.3561 5 12.4999L -5 12.4999C -5 18.3758 -1.59617 23.3114 2.54581 26.5762C 6.7298 29.8741 12.2813 31.9999 17.9094 31.9999L 17.9094 21.9999ZM 5 12.4999C 5 12.1021 5.06463 12.0048 5.03822 12.0649C 5.00555 12.1391 4.96386 12.1653 5.02037 12.1162C 5.29558 11.8774 5.95811 11.5155 7.77259 10.8897C 10.9179 9.80475 16.701 8.27945 21.4449 3.53555L 14.3739 -3.53555C 11.6178 -0.779514 8.44619 0.0791631 4.51184 1.43623C 2.78646 2.03136 0.377882 2.90494 -1.53305 4.56291C -3.79394 6.52451 -5 9.21767 -5 12.4999L 5 12.4999ZM 14.2097 3.36336C 16.187 5.53839 18.6052 6.78188 20.6821 7.60218C 22.586 8.35414 24.9667 9.00498 26.2401 9.41851C 27.8744 9.94921 28.5481 10.3193 28.833 10.5669C 28.9111 10.6348 28.8899 10.6347 28.8679 10.5858C 28.8486 10.5429 28.9094 10.6389 28.9094 10.9999L 38.9094 10.9999C 38.9094 7.65315 37.6198 4.95425 35.3921 3.01853C 33.4583 1.3381 31.0695 0.472724 29.3287 -0.092566C 27.2272 -0.775015 25.9203 -1.08067 24.3555 -1.69869C 22.9637 -2.24839 22.1318 -2.78839 21.6091 -3.36336L 14.2097 3.36336Z" fill="white"/>
</g>
</g>
<g id="Ellipse_5" transform="translate(92.5 134.5)">
<mask id="path-9-inside-5" fill="white">
<path d="M 34.4999 11.5C 36 22.5 27.0603 28.5 18.4999 28.5C 9.93947 28.5 0 22.232 0 14.5C 0 6.76801 2.43958 0 11 0C 19.5604 0 34.4999 3.76801 34.4999 11.5Z"/>
</mask>
<g mask="url(#path-9-inside-5)">
<path d="M 34.4999 11.5L 29.4999 11.5L 29.4999 11.8394L 29.5458 12.1756L 34.4999 11.5ZM 29.5458 12.1756C 30.074 16.0489 28.8051 18.6767 26.8829 20.4494C 24.8089 22.3621 21.6975 23.5 18.4999 23.5L 18.4999 33.5C 23.8627 33.5 29.5013 31.6379 33.6623 27.8006C 37.9751 23.8233 40.4259 17.9511 39.4541 10.8244L 29.5458 12.1756ZM 18.4999 23.5C 15.3337 23.5 11.7114 22.3017 8.94163 20.3277C 6.10061 18.303 5 16.1293 5 14.5L -5 14.5C -5 20.6027 -1.13088 25.429 3.13794 28.4713C 7.47796 31.5643 13.1057 33.5 18.4999 33.5L 18.4999 23.5ZM 5 14.5C 5 10.9983 5.58165 8.5011 6.51664 7.02148C 7.2068 5.92931 8.29253 5 11 5L 11 -5C 5.14704 -5 0.732769 -2.54531 -1.93696 1.67953C -4.36187 5.51691 -5 10.2698 -5 14.5L 5 14.5ZM 11 5C 14.7106 5 19.9522 5.84417 24.1144 7.49737C 26.1964 8.32433 27.7022 9.23451 28.6095 10.0864C 29.4691 10.8934 29.4999 11.3451 29.4999 11.5L 39.4999 11.5C 39.4999 7.78888 37.6634 4.87011 35.4543 2.79602C 33.2929 0.766749 30.5288 -0.714821 27.8058 -1.79636C 22.3581 -3.96016 15.8498 -5 11 -5L 11 5Z" fill="white"/>
</g>
</g>
<g id="Ellipse_6" transform="translate(101 110.5)">
<mask id="path-11-inside-6" fill="white">
<path d="M 40 15.5C 37.5 24 31.4934 30.5 21 30.5C 10.5066 30.5 0 25.2842 0 17C 0 8.7157 1.00659 0 11.5 0C 15.5 2 28 2 34.5 2C 41 2 40 11.5897 40 15.5Z"/>
</mask>
<g mask="url(#path-11-inside-6)">
<path d="M 40 15.5L 44.7968 16.9108L 45 16.22L 45 15.5L 40 15.5ZM 11.5 0L 13.7361 -4.47214L 12.6803 -5L 11.5 -5L 11.5 0ZM 35.2032 14.0891C 34.1534 17.6585 32.4606 20.485 30.2378 22.3961C 28.0827 24.2491 25.1372 25.5 21 25.5L 21 35.5C 27.3562 35.5 32.6607 33.5009 36.7572 29.9788C 40.7861 26.5149 43.3466 21.8415 44.7968 16.9108L 35.2032 14.0891ZM 21 25.5C 16.4955 25.5 12.1598 24.3644 9.11854 22.5578C 6.05922 20.7405 5 18.7447 5 17L -5 17C -5 23.5395 -0.805929 28.2937 4.0114 31.1553C 8.84675 34.0276 15.0111 35.5 21 35.5L 21 25.5ZM 5 17C 5 12.8159 5.30768 9.64401 6.3114 7.58019C 6.747 6.68453 7.25298 6.1379 7.85779 5.77327C 8.48344 5.39607 9.57203 5 11.5 5L 11.5 -5C 8.18126 -5 5.209 -4.30661 2.69465 -2.79073C 0.159448 -1.26228 -1.55373 0.887783 -2.68146 3.20659C -4.80439 7.57168 -5 12.8997 -5 17L 5 17ZM 9.26393 4.47214C 10.9986 5.33945 13.1801 5.80294 15.1101 6.09859C 17.1664 6.41361 19.4824 6.61257 21.7813 6.74208C 26.3811 7.00123 31.2688 7 34.5 7L 34.5 -3C 31.2312 -3 26.6189 -3.00123 22.3437 -3.24208C 20.2051 -3.36257 18.2398 -3.53861 16.6243 -3.78609C 14.8824 -4.05294 14.0014 -4.33945 13.7361 -4.47214L 9.26393 4.47214ZM 34.5 7C 34.7063 7 34.4578 6.99193 34.3001 6.80737C 34.2932 6.79933 34.3664 6.88372 34.471 7.13866C 34.5758 7.39394 34.6853 7.75508 34.7798 8.24011C 35.2194 10.4956 35 12.9722 35 15.5L 45 15.5C 45 14.1175 45.2806 9.8441 44.5952 6.32718C 44.2376 4.49252 43.5226 2.2072 41.903 0.311609C 40.1047 -1.79321 37.5437 -3 34.5 -3L 34.5 7Z" fill="white"/>
</g>
</g>
<g id="Ellipse_7" transform="translate(113 87)">
<mask id="path-13-inside-7" fill="white">
<path d="M 31.814 17.9252C 25.8201 30.4314 14.3735 26.3705 7.07765 26.3705C -0.218189 26.3705 0.00070141 20.1809 0.00070141 13.5962C 0.00070141 7.01153 -0.218189 0.396166 7.07765 0.396166C 14.3735 0.396166 34.1193 -4.20093 31.814 17.9252Z"/>
</mask>
<g mask="url(#path-13-inside-7)">
<path d="M 31.814 17.9252L 36.3229 20.0862L 36.6973 19.305L 36.7871 18.4434L 31.814 17.9252ZM 27.3051 15.7642C 26.1329 18.2099 24.8364 19.5705 23.6381 20.3839C 22.4243 21.2078 21.0158 21.67 19.3326 21.874C 17.5998 22.0839 15.7167 22.0063 13.5988 21.8273C 11.6884 21.6659 9.18279 21.3705 7.07765 21.3705L 7.07765 31.3705C 8.62043 31.3705 10.2816 31.5827 12.7567 31.7918C 15.0243 31.9834 17.7454 32.1394 20.5355 31.8013C 23.3752 31.4573 26.4082 30.5898 29.2544 28.6578C 32.1161 26.7152 34.4981 23.8936 36.3229 20.0862L 27.3051 15.7642ZM 7.07765 21.3705C 6.51382 21.3705 6.15618 21.3102 5.95091 21.2562C 5.84998 21.2296 5.78622 21.2047 5.75116 21.1891C 5.73336 21.1812 5.72148 21.175 5.71451 21.1711C 5.70758 21.1672 5.70434 21.165 5.70394 21.1648C 5.70355 21.1645 5.70468 21.1653 5.7067 21.1669C 5.70871 21.1686 5.71035 21.1701 5.71131 21.171C 5.71401 21.1737 5.70803 21.1685 5.69415 21.1491C 5.66547 21.1092 5.59272 20.9942 5.50521 20.7522C 5.31284 20.2202 5.15251 19.3756 5.0709 18.0604C 4.98951 16.749 5.0007 15.3227 5.0007 13.5962L -4.9993 13.5962C -4.9993 16.4752 -5.12776 20.7545 -3.89874 24.153C -3.20742 26.0647 -1.99988 28.0203 0.0839507 29.4362C 2.13982 30.833 4.55781 31.3705 7.07765 31.3705L 7.07765 21.3705ZM 5.0007 13.5962C 5.0007 11.8731 4.98937 10.4142 5.07138 9.05753C 5.15363 7.6972 5.31648 6.77414 5.52825 6.16225C 5.62648 5.87842 5.71423 5.72534 5.7626 5.65442C 5.78598 5.62016 5.801 5.60378 5.80606 5.59852C 5.81065 5.59375 5.81216 5.59275 5.8132 5.59201C 5.81425 5.59125 5.82547 5.58309 5.85363 5.56977C 5.88241 5.55616 5.93721 5.53324 6.02649 5.50825C 6.20752 5.45758 6.53919 5.39617 7.07765 5.39617L 7.07765 -4.60383C 4.49438 -4.60383 2.03811 -4.01051 -0.0253123 -2.5266C -2.08878 -1.04265 -3.25698 0.970777 -3.92178 2.89162C -5.12138 6.35772 -4.9993 10.6905 -4.9993 13.5962L 5.0007 13.5962ZM 7.07765 5.39617C 8.19 5.39617 9.47544 5.31014 10.6634 5.23071C 11.9152 5.14701 13.1824 5.06072 14.4948 5.02134C 17.1642 4.94124 19.6241 5.07551 21.6504 5.6646C 23.578 6.225 24.8573 7.11353 25.6831 8.46244C 26.5594 9.89377 27.3483 12.5369 26.8409 17.4071L 36.7871 18.4434C 37.4323 12.2505 36.6175 7.17094 34.2118 3.24124C 31.7557 -0.77088 28.0747 -2.88173 24.4421 -3.93783C 20.9081 -4.96523 17.2077 -5.06457 14.1948 -4.97416C 12.6661 -4.92829 11.2117 -4.82828 9.99623 -4.74701C 8.71684 -4.66147 7.78926 -4.60383 7.07765 -4.60383L 7.07765 5.39617Z" fill="white"/>
</g>
</g>
<g id="Ellipse_8" transform="translate(116 53.5)">
<mask id="path-15-inside-8" fill="white">
<path d="M 32 20.5C 32 28.7843 24.268 35.5 14.7302 35.5C 5.19229 35.5 0 28.7843 0 20.5C 0 12.2157 6.96213 0 16.5 0C 26.0379 0 32 12.2157 32 20.5Z"/>
</mask>
<g mask="url(#path-15-inside-8)">
<path d="M 27 20.5C 27 25.3846 22.1914 30.5 14.7302 30.5L 14.7302 40.5C 26.3447 40.5 37 32.184 37 20.5L 27 20.5ZM 14.7302 30.5C 11.2081 30.5 8.91676 29.3004 7.47277 27.7265C 5.97114 26.0897 5 23.6186 5 20.5L -5 20.5C -5 25.6657 -3.37499 30.6946 0.103991 34.4867C 3.64061 38.3417 8.71439 40.5 14.7302 40.5L 14.7302 30.5ZM 5 20.5C 5 17.5583 6.31585 13.4326 8.73645 10.0573C 11.18 6.65001 13.9843 5 16.5 5L 16.5 -5C 9.47787 -5 4.03214 -0.542146 0.610146 4.2295C -2.83478 9.03313 -5 15.1575 -5 20.5L 5 20.5ZM 16.5 5C 18.9239 5 21.4548 6.54589 23.646 9.886C 25.8216 13.2023 27 17.381 27 20.5L 37 20.5C 37 15.3347 35.1974 9.26344 32.0074 4.40079C 28.833 -0.438024 23.614 -5 16.5 -5L 16.5 5Z" fill="white"/>
</g>
</g>
<g id="Ellipse_9" transform="translate(85 59)">
<mask id="path-17-inside-9" fill="white">
<path d="M 33 17.0269C 33 25.5873 24.8363 31 16.9854 31C 9.13444 31 0 25.5873 0 17.0269C 0 8.4665 9.13444 0 16.9854 0C 24.8363 0 33 8.4665 33 17.0269Z"/>
</mask>
<g mask="url(#path-17-inside-9)">
<path d="M 28 17.0269C 28 21.8515 23.1624 26 16.9854 26L 16.9854 36C 26.5102 36 38 29.3232 38 17.0269L 28 17.0269ZM 16.9854 26C 14.1111 26 10.914 24.9791 8.52847 23.2086C 6.19682 21.4781 5 19.3466 5 17.0269L -5 17.0269C -5 23.2676 -1.62959 28.1227 2.56871 31.2386C 6.7131 34.3145 12.0088 36 16.9854 36L 16.9854 26ZM 5 17.0269C 5 14.4777 6.42548 11.4342 9.04096 8.88148C 11.6759 6.30972 14.7357 5 16.9854 5L 16.9854 -5C 11.3842 -5 5.95123 -2.07647 2.05622 1.72512C -1.85826 5.54573 -5 11.0157 -5 17.0269L 5 17.0269ZM 16.9854 5C 19.1678 5 21.9408 6.24709 24.3089 8.74402C 26.6514 11.2139 28 14.2922 28 17.0269L 38 17.0269C 38 11.2012 35.2668 5.76607 31.5647 1.86258C 27.8882 -2.01384 22.6539 -5 16.9854 -5L 16.9854 5Z" fill="white"/>
</g>
</g>
<path id="Ellipse_10" d="M 30.5 16C 30.5 23.3839 24.3051 29.5 16.5 29.5C 8.69494 29.5 2.5 23.3839 2.5 16C 2.5 8.61611 8.69494 2.5 16.5 2.5C 24.3051 2.5 30.5 8.61611 30.5 16Z" transform="translate(55 59)" stroke="white" stroke-width="5"/>
<path id="Ellipse_11" d="M 30.5 12.5C 30.5 14.9993 29.1688 17.4437 26.6576 19.3461C 24.1448 21.2498 20.5618 22.5 16.5 22.5C 12.4382 22.5 8.85521 21.2498 6.34238 19.3461C 3.83117 17.4437 2.5 14.9993 2.5 12.5C 2.5 10.0007 3.83117 7.55633 6.34238 5.6539C 8.85521 3.75024 12.4382 2.5 16.5 2.5C 20.5618 2.5 24.1448 3.75024 26.6576 5.6539C 29.1688 7.55633 30.5 10.0007 30.5 12.5Z" transform="translate(48 89)" stroke="white" stroke-width="5"/>
<g id="Ellipse_12" transform="translate(37 111)">
<mask id="path-21-inside-10" fill="white">
<path d="M 33 13.5C 33 20.9558 29.6127 28 20.5 28C 11.3873 28 0 20.9558 0 13.5C 0 6.04416 7.3873 0 16.5 0C 25.6127 0 33 6.04416 33 13.5Z"/>
</mask>
<g mask="url(#path-21-inside-10)">
<path d="M 28 13.5C 28 16.5762 27.2861 19.0285 26.1431 20.5784C 25.1671 21.902 23.5853 23 20.5 23L 20.5 33C 26.5274 33 31.1956 30.5759 34.1914 26.5135C 37.0203 22.6774 38 17.8797 38 13.5L 28 13.5ZM 20.5 23C 17.0912 23 12.9247 21.6277 9.63191 19.4029C 6.12894 17.0362 5 14.7209 5 13.5L -5 13.5C -5 19.7349 -0.435287 24.6697 4.03357 27.689C 8.71257 30.8503 14.7961 33 20.5 33L 20.5 23ZM 5 13.5C 5 9.69692 9.16381 5 16.5 5L 16.5 -5C 5.6108 -5 -5 2.39139 -5 13.5L 5 13.5ZM 16.5 5C 23.8362 5 28 9.69692 28 13.5L 38 13.5C 38 2.39139 27.3892 -5 16.5 -5L 16.5 5Z" fill="white"/>
</g>
</g>
<g id="Ellipse_13" transform="translate(69.9844 110)">
<mask id="path-23-inside-11" fill="white">
<path d="M 33.0156 17.5C 33.0156 24.9559 25.6283 31 16.5156 31C 7.40285 31 0.0155524 24.9559 0.0155524 17.5C 0.0155524 13.1201 -0.435125 4.9665 3.51562 2.50003C 6.29023 0.767826 8.75609 0 12.5156 0C 17.8069 0 27.3651 1.70014 31.5156 6C 34.5131 9.10535 33.0156 14.3734 33.0156 17.5Z"/>
</mask>
<g mask="url(#path-23-inside-11)">
<path d="M 3.51562 2.50003L 6.1635 6.74135L 3.51562 2.50003ZM 31.5156 6L 27.9182 9.47249L 31.5156 6ZM 28.0156 17.5C 28.0156 21.3031 23.8517 26 16.5156 26L 16.5156 36C 27.4048 36 38.0156 28.6086 38.0156 17.5L 28.0156 17.5ZM 16.5156 26C 9.17936 26 5.01555 21.3031 5.01555 17.5L -4.98445 17.5C -4.98445 28.6086 5.62635 36 16.5156 36L 16.5156 26ZM 5.01555 17.5C 5.01555 15.0465 4.9159 12.4057 5.24125 9.93537C 5.60855 7.14647 6.28793 6.66366 6.1635 6.74135L 0.867741 -1.74128C -3.20743 0.802874 -4.27809 5.63012 -4.67314 8.62963C -5.11013 11.9477 -4.98445 15.5737 -4.98445 17.5L 5.01555 17.5ZM 6.1635 6.74135C 8.13568 5.5101 9.68258 5 12.5156 5L 12.5156 -5C 7.8296 -5 4.44478 -3.97445 0.867741 -1.74128L 6.1635 6.74135ZM 12.5156 5C 14.7188 5 17.9936 5.36632 21.1418 6.21515C 24.4349 7.10308 26.7943 8.3082 27.9182 9.47249L 35.1131 2.52751C 32.0865 -0.608061 27.5915 -2.40294 23.7451 -3.44004C 19.7537 -4.51625 15.6037 -5 12.5156 -5L 12.5156 5ZM 27.9182 9.47249C 28.0643 9.62386 28.3894 10.0956 28.3896 11.7428C 28.3897 12.5251 28.3195 13.3576 28.2252 14.3466C 28.1421 15.2192 28.0156 16.4219 28.0156 17.5L 38.0156 17.5C 38.0156 17.0148 38.0762 16.3866 38.1802 15.295C 38.2731 14.3199 38.3898 13.055 38.3896 11.7413C 38.3893 9.19642 37.9645 5.48149 35.1131 2.52751L 27.9182 9.47249Z" fill="white"/>
</g>
</g>
<g id="Ellipse_14" transform="translate(61 135)">
<mask id="path-25-inside-12" fill="white">
<path d="M 33.6191 14.6774C 33.6191 20.9307 26.0967 26 16.8175 26C 7.53818 26 0.0158367 20.9307 0.0158367 14.6774C 0.0158367 11.004 -0.443079 4.16545 3.57988 2.0968C 6.40521 0.643983 8.91615 0 12.7444 0C 18.1325 0 27.8654 1.42592 32.0917 5.03226C 35.144 7.63674 33.6191 12.0551 33.6191 14.6774Z"/>
</mask>
<g mask="url(#path-25-inside-12)">
<path d="M 3.57988 2.0968L 5.86636 6.54337L 3.57988 2.0968ZM 32.0917 5.03226L 28.8462 8.83576L 32.0917 5.03226ZM 28.6191 14.6774C 28.6191 15.6373 28.0433 17.0955 25.9038 18.5373C 23.7944 19.9588 20.5967 21 16.8175 21L 16.8175 31C 22.3175 31 27.5206 29.5065 31.4922 26.8301C 35.4336 24.1739 38.6191 19.9708 38.6191 14.6774L 28.6191 14.6774ZM 16.8175 21C 13.0382 21 9.84053 19.9588 7.73114 18.5373C 5.59158 17.0955 5.01584 15.6373 5.01584 14.6774L -4.98416 14.6774C -4.98416 19.9708 -1.79873 24.1739 2.14269 26.8301C 6.11429 29.5065 11.3175 31 16.8175 31L 16.8175 21ZM 5.01584 14.6774C 5.01584 12.5217 4.92016 10.4908 5.22653 8.57479C 5.55259 6.53562 6.07454 6.43632 5.86636 6.54337L 1.2934 -2.34977C -2.93774 -0.17407 -4.19781 4.18023 -4.64803 6.99585C -5.11795 9.93466 -4.98416 13.1597 -4.98416 14.6774L 5.01584 14.6774ZM 5.86636 6.54337C 7.94288 5.4756 9.66345 5 12.7444 5L 12.7444 -5C 8.16885 -5 4.86754 -4.18764 1.2934 -2.34977L 5.86636 6.54337ZM 12.7444 5C 15.0755 5 18.4922 5.31697 21.7697 6.04483C 25.2253 6.81226 27.7036 7.86078 28.8462 8.83576L 35.3372 1.22876C 32.2535 -1.4026 27.7522 -2.87021 23.9377 -3.71733C 19.9451 -4.60401 15.8013 -5 12.7444 -5L 12.7444 5ZM 28.8462 8.83576C 28.8763 8.86142 28.8759 8.85536 28.8965 8.9147C 28.9368 9.03026 28.9999 9.30513 29 9.84903C 29.0001 10.4056 28.9391 11.0231 28.8428 11.8559C 28.7629 12.5465 28.6191 13.6622 28.6191 14.6774L 38.6191 14.6774C 38.6191 14.3815 38.6659 13.9616 38.7765 13.0048C 38.8708 12.1902 39.0002 11.0486 39 9.8473C 38.9996 7.41162 38.4602 3.89355 35.3372 1.22876L 28.8462 8.83576Z" fill="white"/>
</g>
</g>
<g id="Ellipse_15" transform="translate(80 85)">
<mask id="path-27-inside-13" fill="white">
<path d="M 32.8971 14.7962C 32.8971 22.6408 25.5328 29 16.4486 29C 7.36427 29 0 22.6408 0 14.7962C 0 10.5895 2.6162 3.19325 5.98129 0.592441C 8.89135 -1.65668 13.7311 3.2228 17.9439 3.2228C 22.6572 3.2228 27.9044 0.4797 30.9033 3.22277C 33.6844 5.76656 32.8971 11.0218 32.8971 14.7962Z"/>
</mask>
<g mask="url(#path-27-inside-13)">
<path d="M 5.98129 0.592441L 2.92368 -3.3637L 2.92368 -3.3637L 5.98129 0.592441ZM 30.9033 3.22277L 27.5287 6.91218L 27.5287 6.91218L 30.9033 3.22277ZM 27.8971 14.7962C 27.8971 19.2159 23.4852 24 16.4486 24L 16.4486 34C 27.5805 34 37.8971 26.0656 37.8971 14.7962L 27.8971 14.7962ZM 16.4486 24C 9.4119 24 5 19.2159 5 14.7962L -5 14.7962C -5 26.0656 5.31663 34 16.4486 34L 16.4486 24ZM 5 14.7962C 5 13.523 5.44787 11.2686 6.37427 8.94119C 7.34346 6.50622 8.42777 5.02091 9.0389 4.54858L 2.92368 -3.3637C 0.169722 -1.23522 -1.73662 2.27802 -2.9168 5.24307C -4.13977 8.31563 -5 11.8628 -5 14.7962L 5 14.7962ZM 9.0389 4.54858C 8.36145 5.07217 7.69067 4.99117 7.73437 4.99781C 7.93416 5.02818 8.40359 5.16854 9.43382 5.629C 10.2314 5.98547 11.6586 6.67743 12.9027 7.15873C 14.2154 7.66657 15.9827 8.2228 17.9439 8.2228L 17.9439 -1.7772C 17.7986 -1.7772 17.3812 -1.83091 16.5107 -2.16768C 15.5716 -2.53101 14.817 -2.91835 13.5143 -3.5006C 12.4443 -3.97887 10.8948 -4.63667 9.23704 -4.88864C 7.42318 -5.16433 5.05617 -5.01185 2.92368 -3.3637L 9.0389 4.54858ZM 17.9439 8.2228C 19.5708 8.2228 21.1291 7.98843 22.4134 7.75937C 23.893 7.49548 24.7281 7.30156 25.8114 7.13833C 28.014 6.80648 27.8869 7.23981 27.5287 6.91218L 34.278 -0.466651C 30.9209 -3.53734 26.6707 -3.10399 24.3216 -2.75007C 23.1291 -2.5704 21.5812 -2.25 20.6576 -2.08528C 19.5387 -1.88573 18.6737 -1.7772 17.9439 -1.7772L 17.9439 8.2228ZM 27.5287 6.91218C 27.4552 6.84496 27.8292 7.13744 27.9559 8.90554C 28.0129 9.69964 28.0079 10.587 27.9787 11.6106C 27.9523 12.5364 27.8971 13.7596 27.8971 14.7962L 37.8971 14.7962C 37.8971 13.604 38.0928 10.4564 37.9303 8.19047C 37.7555 5.7514 37.1326 2.14437 34.278 -0.466651L 27.5287 6.91218Z" fill="white"/>
</g>
</g>
<g id="Ellipse_16" transform="translate(24 58.5)">
<mask id="path-29-inside-14" fill="white">
<path d="M 32 20C 32 28.5604 24.8366 30.5 16 30.5C 7.16344 30.5 0 23.5604 0 15C 0 6.43959 10.6634 0 19.5 0C 28.3366 0 32 11.4396 32 20Z"/>
</mask>
<g mask="url(#path-29-inside-14)">
<path d="M 27 20C 27 21.4324 26.7057 22.2502 26.4256 22.7296C 26.152 23.1977 25.7188 23.6413 24.9481 24.0552C 23.1993 24.9944 20.2569 25.5 16 25.5L 16 35.5C 20.5797 35.5 25.6373 35.0358 29.6793 32.8651C 31.804 31.7241 33.714 30.0776 35.0597 27.7745C 36.3989 25.4826 37 22.8478 37 20L 27 20ZM 16 25.5C 9.77405 25.5 5 20.6505 5 15L -5 15C -5 26.4703 4.55284 35.5 16 35.5L 16 25.5ZM 5 15C 5 12.9254 6.31756 10.5086 9.33302 8.36526C 12.308 6.25068 16.1805 5 19.5 5L 19.5 -5C 13.983 -5 8.10542 -3.03088 3.53957 0.214432C -0.985843 3.43101 -5 8.51421 -5 15L 5 15ZM 19.5 5C 21.3144 5 23.0583 6.04414 24.617 9.07597C 26.1884 12.1326 27 16.3044 27 20L 37 20C 37 15.1352 35.9799 9.307 33.5105 4.50372C 31.0283 -0.324342 26.5221 -5 19.5 -5L 19.5 5Z" fill="white"/>
</g>
</g>
<g id="Ellipse_17" transform="translate(24 88)">
<mask id="path-31-inside-15" fill="white">
<path d="M 26 11.5239C 26 20.0711 21.2895 27 13.2281 27C 5.16665 27 0 16.0773 0 7.53008C 0 -1.01709 5.16665 0.0417486 13.2281 0.0417486C 21.2895 0.0417486 26 2.97672 26 11.5239Z"/>
</mask>
<g mask="url(#path-31-inside-15)">
<path d="M 21 11.5239C 21 14.9333 20.0552 17.6482 18.6951 19.3913C 17.4239 21.0205 15.665 22 13.2281 22L 13.2281 32C 18.8525 32 23.4797 29.5151 26.579 25.543C 29.5896 21.6848 31 16.6617 31 11.5239L 21 11.5239ZM 13.2281 22C 11.691 22 9.72886 20.955 7.86856 17.8813C 6.05788 14.8896 5 10.9225 5 7.53008L -5 7.53008C -5 12.6849 -3.47455 18.4527 -0.68655 23.0592C 2.05182 27.5836 6.70375 32 13.2281 32L 13.2281 22ZM 5 7.53008C 5 5.81044 5.27496 5.23495 5.30785 5.17553C 5.31152 5.16889 5.30188 5.18727 5.27498 5.21934C 5.24772 5.25183 5.21519 5.28353 5.18201 5.31006C 5.11139 5.36652 5.10204 5.3492 5.24078 5.30071C 5.61361 5.17039 6.35953 5.04066 7.86619 5.00873C 9.47034 4.97474 10.9063 5.04175 13.2281 5.04175L 13.2281 -4.95825C 11.5191 -4.95825 9.28622 -5.0236 7.65435 -4.98902C 5.925 -4.95238 3.86773 -4.81263 1.94123 -4.13926C -0.184591 -3.39622 -2.14807 -2.00369 -3.44135 0.332852C -4.62913 2.4788 -5 4.97614 -5 7.53008L 5 7.53008ZM 13.2281 5.04175C 16.8228 5.04175 18.5997 5.72901 19.4559 6.43514C 20.1033 6.96898 21 8.15765 21 11.5239L 31 11.5239C 31 6.34297 29.5415 1.79057 25.8182 -1.27987C 22.3039 -4.17802 17.6948 -4.95825 13.2281 -4.95825L 13.2281 5.04175Z" fill="white"/>
</g>
</g>
<g id="Ellipse_18" transform="translate(0 55)">
<mask id="path-33-inside-16" fill="white">
<path d="M 25.4758 15.9291C 25.4758 20.6173 28.9052 30.3166 25.4758 31.8581C 25.4758 34.4273 16.0238 31.8581 12.7379 31.8581C 5.70295 31.8581 0 24.7264 0 15.9291C 0 7.13169 5.70295 0 12.7379 0C 16.6777 0 23.6292 1.62496 25.9657 5.13841C 27.8013 7.89859 25.4758 12.0585 25.4758 15.9291Z"/>
</mask>
<g mask="url(#path-33-inside-16)">
<path d="M 25.9657 5.13841L 30.1291 2.36964L 30.1291 2.36964L 25.9657 5.13841ZM 25.4758 31.8581L 23.4259 27.2977L 20.4758 28.6237L 20.4758 31.8581L 25.4758 31.8581ZM 12.7379 26.8581C 9.44958 26.8581 5 23.066 5 15.9291L -5 15.9291C -5 26.3869 1.95633 36.8581 12.7379 36.8581L 12.7379 26.8581ZM 5 15.9291C 5 8.79215 9.44958 5 12.7379 5L 12.7379 -5C 1.95633 -5 -5 5.47122 -5 15.9291L 5 15.9291ZM 12.7379 5C 14.1436 5 16.3305 5.31089 18.3641 5.99247C 20.5833 6.73627 21.5774 7.56901 21.8023 7.90718L 30.1291 2.36964C 28.0175 -0.805636 24.3676 -2.5421 21.542 -3.48914C 18.5307 -4.4984 15.2721 -5 12.7379 -5L 12.7379 5ZM 21.8023 7.90718C 21.5057 7.46116 21.8464 7.32843 21.4955 9.19203C 21.4217 9.58403 21.3332 9.99715 21.2276 10.4856C 21.1266 10.9533 21.0086 11.4957 20.9017 12.0474C 20.6898 13.1417 20.4758 14.4904 20.4758 15.9291L 30.4758 15.9291C 30.4758 14.6151 30.8426 13.5921 31.3227 11.0427C 31.6757 9.16863 32.2613 5.57584 30.1291 2.36964L 21.8023 7.90718ZM 20.4758 15.9291C 20.4758 17.5737 20.7643 19.445 21.0274 21.0085C 21.3192 22.7437 21.6064 24.2451 21.806 25.7368C 22.0097 27.2591 22.0345 28.2099 21.9669 28.7139C 21.8846 29.3279 21.8907 27.9877 23.4259 27.2977L 27.5257 36.4186C 30.7756 34.9578 31.6391 31.8271 31.8783 30.0424C 32.1322 28.1478 31.9426 26.0917 31.7177 24.4105C 31.4886 22.6986 31.1327 20.7998 30.8888 19.3496C 30.616 17.7278 30.4758 16.6286 30.4758 15.9291L 20.4758 15.9291ZM 20.4758 31.8581C 20.4758 30.3015 21.3449 29.062 22.3001 28.4286C 22.9749 27.9812 23.4848 27.9604 23.3105 27.9828C 23.029 28.0189 22.2742 28.0122 20.9141 27.8548C 19.6346 27.7066 18.2891 27.4881 16.8507 27.2739C 15.5893 27.0861 13.9993 26.8581 12.7379 26.8581L 12.7379 36.8581C 13.1195 36.8581 13.9432 36.9513 15.3782 37.1649C 16.6362 37.3522 18.2698 37.6154 19.764 37.7884C 21.1777 37.9521 22.9912 38.106 24.5847 37.9013C 25.3479 37.8032 26.6219 37.5616 27.8264 36.7629C 29.3114 35.7783 30.4758 34.0571 30.4758 31.8581L 20.4758 31.8581Z" fill="white"/>
</g>
</g>
<g id="Ellipse_19" transform="matrix(0.97689 0.213742 -0.213742 0.97689 4.19849 82)">
<mask id="path-35-inside-17" fill="white">
<path d="M 25.4717 13.4631C 25.4717 19.4355 28.8679 18.4383 30 24.9205C 26.6038 29.9069 22.9101 28.9208 18.6792 28.9208C 11.1765 28.9208 0 21.174 0 13.4631C 0 5.75226 7.21424 0 14.717 0C 22.2197 0 25.4717 5.75226 25.4717 13.4631Z"/>
</mask>
<g mask="url(#path-35-inside-17)">
<path d="M 30 24.9205L 34.1325 27.7352L 35.2744 26.0586L 34.9254 24.0603L 30 24.9205ZM 18.6792 23.9208C 16.3804 23.9208 12.763 22.5984 9.59443 20.1357C 6.31739 17.5887 5 15.014 5 13.4631L -5 13.4631C -5 19.6232 -0.729131 24.7772 3.45777 28.0314C 7.75311 31.3698 13.4754 33.9208 18.6792 33.9208L 18.6792 23.9208ZM 5 13.4631C 5 9.11415 9.33426 5 14.717 5L 14.717 -5C 5.09423 -5 -5 2.39037 -5 13.4631L 5 13.4631ZM 14.717 5C 17.0136 5 18.1389 5.78583 18.8674 6.78523C 19.7678 8.02053 20.4717 10.2022 20.4717 13.4631L 30.4717 13.4631C 30.4717 9.01322 29.5496 4.46329 26.9484 0.894749C 24.1752 -2.9097 19.9231 -5 14.717 -5L 14.717 5ZM 20.4717 13.4631C 20.4717 15.4469 20.7567 17.1524 21.372 18.7043C 21.9755 20.2263 22.7962 21.3208 23.3259 22.02C 24.1783 23.1451 24.7178 23.738 25.0745 25.7807L 34.9254 24.0603C 34.1501 19.6208 32.4255 17.4712 31.2967 15.9813C 30.8358 15.3729 30.7368 15.1918 30.668 15.0185C 30.6112 14.8751 30.4717 14.4656 30.4717 13.4631L 20.4717 13.4631ZM 25.8675 22.1058C 24.846 23.6056 24.1632 23.789 23.6685 23.8883C 23.2473 23.9729 22.6968 24.0102 21.8285 23.9975C 21.3922 23.9911 20.9524 23.9745 20.409 23.9562C 19.8901 23.9388 19.2981 23.9208 18.6792 23.9208L 18.6792 33.9208C 19.8525 33.9208 20.2221 33.9751 21.6824 33.9964C 22.8027 34.0128 24.1812 33.9849 25.6368 33.6927C 28.8956 33.0385 31.7578 31.2218 34.1325 27.7352L 25.8675 22.1058Z" fill="white"/>
</g>
</g>
<path id="Line" d="M 0 2.75256C 0 2.75256 5.40838 -0.99633 20.5634 0.256043C 35.7185 1.50842 42.8409 2.75256 42.8409 2.75256" transform="matrix(-0.777758 -0.628564 0.628564 -0.777758 34.3323 62.6245)" stroke="white" stroke-width="5"/>
<line id="Line_2" y1="-2.5" x2="28.8617" y2="-2.5" transform="matrix(-0.970142 -0.242536 0.242536 -0.970142 32 39)" stroke="white" stroke-width="5"/>
<path id="Line_3" d="M -3.77623e-05 7.03235C 15.3995 2.54129 26.2761 -2.91797 36.4128 1.83978" transform="matrix(-0.669509 0.742804 -0.742804 -0.669509 97.2454 29.1842)" stroke="white" stroke-width="5"/>
<line id="Line_4" y1="-2.5" x2="41.1825" y2="-2.5" transform="matrix(0.485643 0.874157 -0.874157 0.485643 89 27)" stroke="white" stroke-width="5"/>
<line id="Line_5" y1="-2.5" x2="51.6236" y2="-2.5" transform="matrix(-0.716725 -0.697356 0.697356 -0.716725 75 56)" stroke="white" stroke-width="5"/>
<path id="Line_6" d="M 0 0C 13.5089 4.34063 21.2494 4.64618 35.4683 0" transform="matrix(0.930408 -0.366525 0.366525 0.930408 101.5 46.5)" stroke="white" stroke-width="5"/>
<path id="Line_7" d="M -1.2693e-06 27C -1.2693e-06 27 3.91453 1.01131 22.127 3.51018C 28.0055 4.31675 38.0173 1.99356 48.215 2.01086C 61.5052 7.50841 70.2443 -0.342383 78.7332 0.0116858C 87.9865 0.397641 93.5 3.51018 93.5 3.51018" transform="matrix(-1 4.70112e-08 -4.70112e-08 -1 133.5 62)" stroke="white" stroke-width="5"/>
<path id="Line_8" d="M 0 2.27651C 0 2.27651 20.8874 -2.84563 32.5 2.27651C 41.3574 6.18337 51 18.7765 51 18.7765" transform="matrix(0 -1 1 0 70.7234 55)" stroke="white" stroke-width="8"/>
<path id="Line_9" d="M 0 4.86112C 0 4.86112 11.0234 -0.650325 19.7606 0.0638643C 28.4978 0.778054 32.5438 5.17391 37.2801 5.38348" transform="matrix(-0.080538 -0.996751 0.996751 -0.080538 34.6365 60.5925)" stroke="white" stroke-width="5"/>
</g>
</g>
</svg>
