<svg width="59" height="39" viewBox="0 0 59 39" version="1.1" xmlns="http://www.w3.org/2000/svg" xmlns:xlink="http://www.w3.org/1999/xlink">
<g id="Canvas" fill="none">
<path id="&#226;&#128;&#157;" d="M 34.0977 70.2061L 34.0977 67.1299C 39.0293 64.3467 42.252 61.832 43.7656 59.5859C 45.3281 57.291 46.1094 54.6543 46.1094 51.6758C 46.1094 50.3086 45.8652 49.2832 45.377 48.5996C 44.8398 47.916 44.2539 47.5742 43.6191 47.5742C 43.1309 47.5742 42.3496 47.7695 41.2754 48.1602C 40.2012 48.5508 39.127 48.7461 38.0527 48.7461C 36.002 48.7461 34.2441 48.0137 32.7793 46.5488C 31.3145 45.084 30.582 43.3018 30.582 41.2021C 30.582 38.8584 31.5098 36.8076 33.3652 35.0498C 35.2695 33.292 37.5645 32.4131 40.25 32.4131C 43.4727 32.4131 46.3779 33.8047 48.9658 36.5879C 51.6025 39.3711 52.9209 42.8867 52.9209 47.1348C 52.9209 52.2617 51.2607 56.9492 47.9404 61.1973C 44.6689 65.4453 40.0547 68.4482 34.0977 70.2061ZM 69.0342 70.2061L 69.0342 67.1299C 73.2822 64.9326 76.334 62.6133 78.1895 60.1719C 80.0938 57.6816 81.0459 54.9961 81.0459 52.1152C 81.0459 50.4063 80.8018 49.21 80.3135 48.5264C 79.8252 47.8916 79.2881 47.5742 78.7021 47.5742C 78.0674 47.5742 77.2129 47.7695 76.1387 48.1602C 75.0156 48.5508 74.0391 48.7461 73.209 48.7461C 71.207 48.7461 69.4492 47.9893 67.9355 46.4756C 66.4707 44.9619 65.7383 43.1553 65.7383 41.0557C 65.7383 38.7119 66.6416 36.6855 68.4482 34.9766C 70.2549 33.2676 72.4766 32.4131 75.1133 32.4131C 78.4336 32.4131 81.4121 33.8535 84.0488 36.7344C 86.6855 39.5664 88.0039 43.0576 88.0039 47.208C 88.0039 52.0908 86.3682 56.6562 83.0967 60.9043C 79.874 65.1035 75.1865 68.2041 69.0342 70.2061Z" transform="translate(-30 -32)" fill="#E0E0E0"/>
</g>
</svg>
